<svg width="19" height="18" viewBox="0 0 19 18" fill="none" xmlns="http://www.w3.org/2000/svg">
<path d="M9.75 4.50781C7.25 4.50781 5.25781 6.53906 5.25781 9C5.25781 11.5 7.25 13.4922 9.75 13.4922C12.2109 13.4922 14.2422 11.5 14.2422 9C14.2422 6.53906 12.2109 4.50781 9.75 4.50781ZM9.75 11.9297C8.14844 11.9297 6.82031 10.6406 6.82031 9C6.82031 7.39844 8.10938 6.10938 9.75 6.10938C11.3516 6.10938 12.6406 7.39844 12.6406 9C12.6406 10.6406 11.3516 11.9297 9.75 11.9297ZM15.4531 4.35156C15.4531 3.76562 14.9844 3.29688 14.3984 3.29688C13.8125 3.29688 13.3438 3.76562 13.3438 4.35156C13.3438 4.9375 13.8125 5.40625 14.3984 5.40625C14.9844 5.40625 15.4531 4.9375 15.4531 4.35156ZM18.4219 5.40625C18.3438 4 18.0312 2.75 17.0156 1.73438C16 0.71875 14.75 0.40625 13.3438 0.328125C11.8984 0.25 7.5625 0.25 6.11719 0.328125C4.71094 0.40625 3.5 0.71875 2.44531 1.73438C1.42969 2.75 1.11719 4 1.03906 5.40625C0.960938 6.85156 0.960938 11.1875 1.03906 12.6328C1.11719 14.0391 1.42969 15.25 2.44531 16.3047C3.5 17.3203 4.71094 17.6328 6.11719 17.7109C7.5625 17.7891 11.8984 17.7891 13.3438 17.7109C14.75 17.6328 16 17.3203 17.0156 16.3047C18.0312 15.25 18.3438 14.0391 18.4219 12.6328C18.5 11.1875 18.5 6.85156 18.4219 5.40625ZM16.5469 14.1562C16.2734 14.9375 15.6484 15.5234 14.9062 15.8359C13.7344 16.3047 11 16.1875 9.75 16.1875C8.46094 16.1875 5.72656 16.3047 4.59375 15.8359C3.8125 15.5234 3.22656 14.9375 2.91406 14.1562C2.44531 13.0234 2.5625 10.2891 2.5625 9C2.5625 7.75 2.44531 5.01562 2.91406 3.84375C3.22656 3.10156 3.8125 2.51562 4.59375 2.20312C5.72656 1.73438 8.46094 1.85156 9.75 1.85156C11 1.85156 13.7344 1.73438 14.9062 2.20312C15.6484 2.47656 16.2344 3.10156 16.5469 3.84375C17.0156 5.01562 16.8984 7.75 16.8984 9C16.8984 10.2891 17.0156 13.0234 16.5469 14.1562Z" fill="white"/>
</svg>
