<svg width="18" height="18" viewBox="0 0 18 18" fill="none" xmlns="http://www.w3.org/2000/svg">
<path fill-rule="evenodd" clip-rule="evenodd" d="M17.882 17.408H14.2794V11.7695C14.2794 10.4266 14.2562 8.69625 12.4071 8.69625C10.5304 8.69625 10.2463 10.1597 10.2463 11.6748V17.408H6.64629V5.81414H10.1V7.3981H10.1499C10.6303 6.48732 11.8062 5.52662 13.5589 5.52662C17.2089 5.52662 17.882 7.92838 17.882 11.0507V17.4089V17.408ZM2.58482 4.23019C2.0306 4.23019 1.49907 4.01002 1.10718 3.61813C0.715282 3.22623 0.495117 2.69471 0.495117 2.14048C0.495117 1.58626 0.715282 1.05474 1.10718 0.662841C1.49907 0.270946 2.0306 0.0507812 2.58482 0.0507812C3.13904 0.0507812 3.67057 0.270946 4.06246 0.662841C4.45436 1.05474 4.67452 1.58626 4.67452 2.14048C4.67452 2.69471 4.45436 3.22623 4.06246 3.61813C3.67057 4.01002 3.13904 4.23019 2.58482 4.23019ZM0.778766 5.81414H4.38571V17.408H0.778766V5.81414Z" fill="white"/>
</svg>
