<svg width="416" height="16" viewBox="0 0 416 16" fill="none" xmlns="http://www.w3.org/2000/svg">
<path d="M6.90898 0C7.0156 0 7.12222 0 7.22884 0C7.41543 0.031986 7.60201 0.031986 7.7886 0C7.92187 0 8.05515 0 8.18842 0C8.47097 0.042648 8.75351 0.037317 9.03605 0.090627C10.2835 0.346515 11.3977 0.879615 12.3679 1.68993C13.8819 2.95871 14.8042 4.56867 15.0707 6.52515C15.3426 8.51361 14.8895 10.3421 13.7273 11.9734C12.4905 13.7007 10.7953 14.7082 8.7002 15.0334C7.20752 15.2627 5.76282 15.0707 4.39275 14.431C4.02491 14.2604 3.7317 14.3191 3.44916 14.5856C3.09731 14.9161 2.6815 15.1294 2.2177 15.268C1.66327 15.4332 1.10352 15.4386 0.538431 15.3106C0.31986 15.2627 0.293205 15.2093 0.383832 15.0068C0.74101 14.1698 0.927595 13.2955 0.90094 12.3839C0.874285 11.6163 0.698362 10.8859 0.421149 10.1715C0.186585 9.57981 0.037317 8.96674 0.021324 8.32702C0.021324 8.3057 0.015993 8.28971 0 8.27371C0 8.14044 0 8.00716 0 7.87389C0.031986 7.79392 0.031986 7.71396 0 7.63399C0 7.49006 0 7.34079 0 7.19685C0.031986 7.16487 0.015993 7.12222 0.021324 7.0849C0.021324 7.05291 0.026655 7.02093 0 6.99427C0 6.9303 0 6.861 0 6.79703C0.058641 6.08267 0.223902 5.39497 0.490452 4.73393C0.836968 3.86498 1.33275 3.09731 1.96714 2.40428C2.89474 1.39139 4.01425 0.703692 5.31501 0.282543C5.81079 0.122613 6.31724 0.015993 6.83968 0.015993C6.861 0.021324 6.88766 0.021324 6.90898 0Z" fill="#FF553E"/>
<path d="M406.909 0C407.016 0 407.122 0 407.229 0C407.415 0.031986 407.602 0.031986 407.789 0C407.922 0 408.055 0 408.188 0C408.471 0.042648 408.754 0.037317 409.036 0.090627C410.284 0.346515 411.398 0.879615 412.368 1.68993C413.882 2.95871 414.804 4.56867 415.071 6.52514C415.343 8.51361 414.889 10.3421 413.727 11.9734C412.491 13.7007 410.795 14.7082 408.7 15.0334C407.208 15.2627 405.763 15.0707 404.393 14.431C404.025 14.2604 403.732 14.3191 403.449 14.5856C403.097 14.9161 402.681 15.1294 402.218 15.268C401.663 15.4332 401.104 15.4386 400.538 15.3106C400.32 15.2627 400.293 15.2093 400.384 15.0068C400.741 14.1698 400.928 13.2955 400.901 12.3839C400.874 11.6163 400.698 10.8859 400.421 10.1715C400.187 9.57981 400.037 8.96674 400.021 8.32702C400.021 8.3057 400.016 8.28971 400 8.27371C400 8.14044 400 8.00716 400 7.87389C400.032 7.79392 400.032 7.71396 400 7.63399C400 7.49006 400 7.34079 400 7.19685C400.032 7.16486 400.016 7.12222 400.021 7.0849C400.021 7.05291 400.027 7.02093 400 6.99427C400 6.9303 400 6.861 400 6.79703C400.059 6.08267 400.224 5.39497 400.49 4.73393C400.837 3.86498 401.333 3.09731 401.967 2.40428C402.895 1.39139 404.014 0.703692 405.315 0.282543C405.811 0.122613 406.317 0.015993 406.84 0.015993C406.861 0.021324 406.888 0.021324 406.909 0Z" fill="#FF553E"/>
<path d="M11.5589 6.47709C12.156 6.47176 12.6571 6.96222 12.6624 7.55929C12.6678 8.15636 12.1827 8.65214 11.5802 8.6628C10.9885 8.67347 10.4821 8.17768 10.4767 7.58061C10.4661 6.98354 10.9619 6.48242 11.5589 6.47709Z" fill="#FEFEFE"/>
<path d="M411.559 6.47709C412.156 6.47176 412.657 6.96222 412.662 7.55929C412.668 8.15636 412.183 8.65214 411.58 8.6628C410.989 8.67347 410.482 8.17768 410.477 7.58061C410.466 6.98354 410.962 6.48242 411.559 6.47709Z" fill="#FEFEFE"/>
<path d="M8.63017 7.57524C8.63017 8.17764 8.13439 8.66809 7.53731 8.66276C6.94024 8.65743 6.44979 8.16165 6.45512 7.56457C6.46045 6.96217 6.9509 6.47705 7.55331 6.47705C8.15038 6.48238 8.6355 6.97283 8.63017 7.57524Z" fill="#FEFEFE"/>
<path d="M408.63 7.57524C408.63 8.17764 408.134 8.66809 407.537 8.66276C406.94 8.65743 406.45 8.16165 406.455 7.56457C406.46 6.96217 406.951 6.47705 407.553 6.47705C408.15 6.48238 408.636 6.97283 408.63 7.57524Z" fill="#FEFEFE"/>
<path d="M2.4248 7.57536C2.4248 6.97296 2.9046 6.4825 3.507 6.47717C4.1094 6.47717 4.59985 6.96229 4.59985 7.5647C4.60519 8.1671 4.11473 8.65755 3.51233 8.66288C2.92059 8.66821 2.43014 8.17243 2.4248 7.57536Z" fill="#FEFEFE"/>
<path d="M402.425 7.57536C402.425 6.97296 402.905 6.4825 403.507 6.47717C404.109 6.47717 404.6 6.96229 404.6 7.5647C404.605 8.1671 404.115 8.65755 403.512 8.66288C402.921 8.66821 402.43 8.17243 402.425 7.57536Z" fill="#FEFEFE"/>
</svg>
