<svg width="17" height="15" viewBox="0 0 17 15" fill="none" xmlns="http://www.w3.org/2000/svg">
<path d="M0.791667 14.25C0.581704 14.25 0.38034 14.1666 0.231874 14.0181C0.0834075 13.8697 0 13.6683 0 13.4583V0.791667C0 0.581704 0.0834075 0.38034 0.231874 0.231874C0.38034 0.0834075 0.581704 0 0.791667 0H6.66108L8.24442 1.58333H14.25C14.46 1.58333 14.6613 1.66674 14.8098 1.81521C14.9583 1.96367 15.0417 2.16504 15.0417 2.375V4.75H1.58333V12.6635L3.16667 6.33333H16.2292L14.4004 13.6507C14.3575 13.8219 14.2587 13.9739 14.1195 14.0824C13.9804 14.191 13.809 14.25 13.6325 14.25H0.791667Z" fill="#FF553E"/>
</svg>
