<svg width="19" height="22" viewBox="0 0 19 22" fill="none" xmlns="http://www.w3.org/2000/svg">
<path fill-rule="evenodd" clip-rule="evenodd" d="M0.881836 8.18442C0.881836 9.87416 1.60254 12.3387 3.58448 12.8942C3.65356 12.9073 3.75065 12.9316 3.81974 12.9316C4.27718 12.9316 4.54044 11.7459 4.54044 11.4099C4.54044 11.0103 3.44445 10.1589 3.44445 8.49436C3.44445 5.03553 6.27126 2.58495 9.92986 2.58495C13.0759 2.58495 15.4033 4.24855 15.4033 7.30688C15.4033 9.59035 14.4193 13.8744 11.2322 13.8744C10.082 13.8744 9.09806 13.0996 9.09806 11.9905C9.09806 10.3643 10.3182 8.78843 10.3182 7.1127C10.3182 6.09325 9.69274 5.26706 8.52953 5.26706C6.94995 5.26706 5.97905 6.91945 5.97905 8.22176C5.97905 8.94433 6.07614 9.74346 6.42343 10.4025C5.78581 12.9568 4.48163 16.7638 4.48163 19.3955C4.48163 20.2077 4.60766 21.0087 4.69074 21.8227L4.81584 21.9506L5.00909 21.8853C7.33738 18.9184 7.25429 18.3378 8.30734 14.4542C8.87681 15.4596 10.3444 16.002 11.5094 16.002C16.4143 16.002 18.6175 11.549 18.6175 7.53746C18.6194 3.26925 14.6565 0.480713 10.3052 0.480713C5.56549 0.480713 0.881836 3.42141 0.881836 8.18442Z" fill="white"/>
</svg>
