<svg width="18" height="15" viewBox="0 0 18 15" fill="none" xmlns="http://www.w3.org/2000/svg">
<path fill-rule="evenodd" clip-rule="evenodd" d="M17.4952 2.58034C16.858 2.86354 16.1736 3.05392 15.4561 3.13888C16.1973 2.69535 16.752 1.9975 17.0169 1.17533C16.3199 1.58887 15.5574 1.88021 14.7623 2.03674C14.2279 1.46503 13.5197 1.08587 12.7476 0.958213C11.9756 0.830551 11.183 0.961539 10.4931 1.33081C9.80317 1.70008 9.25458 2.28695 8.93261 3.00017C8.61064 3.7134 8.53333 4.51301 8.7127 5.27471C7.30132 5.20398 5.9206 4.83719 4.66018 4.19818C3.39976 3.55916 2.28784 2.66219 1.3966 1.56552C1.08035 2.10745 0.914174 2.72383 0.91515 3.35128C0.914806 3.93567 1.05882 4.5111 1.3344 5.02644C1.60998 5.54177 2.00858 5.98105 2.4948 6.30526C1.9311 6.2877 1.37977 6.13558 0.886829 5.86157V5.90641C0.886903 6.72614 1.17051 7.52062 1.68956 8.15509C2.20861 8.78956 2.93114 9.22497 3.7346 9.38746C3.21128 9.52977 2.66234 9.55049 2.12978 9.44803C2.35657 10.1536 2.79831 10.7706 3.39315 11.2127C3.988 11.6548 4.70619 11.8998 5.4472 11.9135C4.18962 12.8998 2.63689 13.4346 1.03866 13.4318C0.75556 13.4327 0.472654 13.4169 0.191406 13.3846C1.81475 14.4276 3.70409 14.9812 5.63364 14.9792C12.1631 14.9792 15.7346 9.56997 15.7346 4.87822C15.7346 4.72482 15.7307 4.57142 15.7236 4.41959C16.4186 3.91718 17.0185 3.29489 17.4952 2.58191" fill="white"/>
</svg>
