<svg width="24" height="24" viewBox="0 0 24 24" fill="none" xmlns="http://www.w3.org/2000/svg">
<path fill-rule="evenodd" clip-rule="evenodd" d="M8.39941 6.19153V9.7534L11.5993 11.3532V7.47136L9.99936 6.83153L8.39941 6.19153Z" fill="white"/>
<path fill-rule="evenodd" clip-rule="evenodd" d="M12.0009 4.0481L8.97656 5.56L12.0009 6.76995L15.0252 5.56L12.0009 4.0481Z" fill="white"/>
<path fill-rule="evenodd" clip-rule="evenodd" d="M12.3994 7.47177V11.3536L15.5991 9.75364V6.19177L13.9991 6.83177L12.3994 7.47177Z" fill="white"/>
<path fill-rule="evenodd" clip-rule="evenodd" d="M21.6 4.40096H20.8001V5.20087C20.8001 5.42176 20.6213 5.6009 20.4001 5.6009C20.1789 5.6009 20 5.42176 20 5.20087V4.40096H19.2001C18.9789 4.40096 18.8001 4.22166 18.8001 4.00094C18.8001 3.78021 18.9789 3.60091 19.2001 3.60091H20V2.80101C20 2.58012 20.1789 2.40098 20.4001 2.40098C20.6213 2.40098 20.8001 2.58012 20.8001 2.80101V3.60091H21.6C21.8212 3.60091 22 3.78021 22 4.00094C22 4.22166 21.8212 4.40096 21.6 4.40096ZM21.6 12.0007H19.6002C19.379 12.0007 19.2002 11.8216 19.2002 11.6008C19.2002 11.3799 19.379 11.2008 19.6002 11.2008H21.6C21.8212 11.2008 22 11.3799 22 11.6008C22 11.8216 21.8212 12.0007 21.6 12.0007ZM21.6 13.6006H20.8001C20.5789 13.6006 20.4001 13.4215 20.4001 13.2008C20.4001 12.9799 20.5789 12.8007 20.8001 12.8007H21.6C21.8212 12.8007 22 12.9799 22 13.2008C22 13.4215 21.8212 13.6006 21.6 13.6006ZM19.2001 13.6006H17.6002C17.379 13.6006 17.2002 13.4215 17.2002 13.2008C17.2002 12.9799 17.379 12.8007 17.6002 12.8007H19.2001C19.4214 12.8007 19.6002 12.9799 19.6002 13.2008C19.6002 13.4215 19.4214 13.6006 19.2001 13.6006ZM16.4003 10.0009C16.4003 10.1525 16.3147 10.2908 16.1791 10.3588L12.1793 12.3588C12.1736 12.3615 12.1668 12.3604 12.1605 12.3631C12.1092 12.3855 12.0557 12.4007 12.0005 12.4007C11.9453 12.4007 11.8917 12.3855 11.8404 12.3631C11.8341 12.3604 11.8273 12.3615 11.8217 12.3588L7.82187 10.3588C7.68626 10.2908 7.60066 10.1525 7.60066 10.0009V6.53655C7.60066 6.18459 7.50307 5.76904 7.66101 5.43713C7.7751 5.19909 8.08547 5.11154 8.31025 4.99908L10.2317 4.03836L11.8217 3.24317C11.9341 3.18718 12.0668 3.18718 12.1793 3.24317L15.2235 4.76544C15.5479 4.92758 15.9211 5.02791 16.197 5.27469C16.4503 5.50076 16.4003 5.76875 16.4003 6.07622L16.4003 10.0009ZM6.40071 3.20108H4.40075C4.17954 3.20108 4.00073 3.02178 4.00073 2.80106C4.00073 2.58017 4.17954 2.40103 4.40075 2.40103H6.40071C6.62192 2.40103 6.80057 2.58017 6.80057 2.80106C6.80057 3.02178 6.62192 3.20108 6.40071 3.20108ZM6.40071 4.80086H5.60067C5.37946 4.80086 5.20081 4.62172 5.20081 4.40099C5.20081 4.1801 5.37946 4.00097 5.60067 4.00097H6.40071C6.62192 4.00097 6.80057 4.1801 6.80057 4.40099C6.80057 4.62172 6.62192 4.80086 6.40071 4.80086ZM5.88354 12.9176C6.03986 13.0741 6.03986 13.3268 5.88354 13.4831C5.80554 13.5611 5.7031 13.6003 5.60067 13.6003C5.4984 13.6003 5.39597 13.5611 5.31797 13.4831L4.40074 12.5661L3.48351 13.4831C3.40551 13.5611 3.30324 13.6003 3.20081 13.6003C3.09837 13.6003 2.99594 13.5611 2.91794 13.4831C2.76162 13.3268 2.76162 13.0741 2.91794 12.9176L3.83517 12.0004L2.91794 11.0833C2.76162 10.9268 2.76162 10.674 2.91794 10.5177C3.07442 10.3613 3.32719 10.3613 3.4835 10.5177L4.40073 11.4348L5.31795 10.5177C5.47427 10.3613 5.72704 10.3613 5.88351 10.5177C6.03983 10.6741 6.03983 10.9268 5.88351 11.0833L4.96628 12.0004L5.88354 12.9176ZM2.0009 4.40067C2.0009 4.17979 2.17972 4.00065 2.40076 4.00065H4.00071C4.22192 4.00065 4.40073 4.17979 4.40073 4.40067C4.40073 4.6214 4.22192 4.80054 4.00071 4.80054H2.40076C2.17972 4.80054 2.0009 4.6214 2.0009 4.40067ZM2.40076 2.40072H2.80079C3.022 2.40072 3.20081 2.57985 3.20081 2.80074C3.20081 3.02147 3.022 3.20077 2.80079 3.20077H2.40076C2.17972 3.20077 2.0009 3.02147 2.0009 2.80074C2.0009 2.57985 2.17972 2.40072 2.40076 2.40072ZM17.6002 11.2002H18.0002C18.2215 11.2002 18.4001 11.3793 18.4001 11.6002C18.4001 11.8209 18.2215 12 18.0002 12H17.6002C17.379 12 17.2002 11.8209 17.2002 11.6002C17.2002 11.3793 17.379 11.2002 17.6002 11.2002ZM22.2007 0.400635H1.80008C0.808115 0.400635 0.000915527 1.20779 0.000915527 2.20025V14.8002H23.9998V2.20025C23.9998 1.20779 23.1927 0.400635 22.2007 0.400635Z" fill="white"/>
<path fill-rule="evenodd" clip-rule="evenodd" d="M14.2562 19.2008C14.2032 20.1325 14.6095 21.0476 15.3479 21.6H8.65212C9.39051 21.0476 9.79736 20.1321 9.74363 19.2002L14.2562 19.2008ZM7.03235e-05 17.4011C7.03235e-05 18.393 0.807228 19.2002 1.79923 19.2002H8.9412C8.998 19.9009 8.69442 20.5925 8.13209 20.9889L7.41214 21.4968C7.36602 21.5284 7.32766 21.5677 7.29611 21.6104C6.79364 21.6632 6.39976 22.0841 6.39976 22.6C6.39976 23.1512 6.84816 23.5999 7.39967 23.5999H16.5993C17.1508 23.5999 17.5992 23.1512 17.5992 22.6C17.5992 22.0844 17.2057 21.6637 16.7037 21.6104C16.673 21.568 16.6344 21.53 16.5896 21.4981L15.868 20.9897C15.3057 20.5934 15.0013 19.9013 15.0586 19.2003H22.1997C23.192 19.2003 23.9989 18.3931 23.9989 17.4011V15.6003H0L7.03235e-05 17.4011Z" fill="white"/>
</svg>
